<mxfile host="app.diagrams.net" modified="2021-07-21T10:08:28.135Z" agent="5.0 (Windows NT 10.0; Win64; x64) AppleWebKit/537.36 (KHTML, like Gecko) Chrome/91.0.4472.124 Safari/537.36" etag="SRXlFR4aftu69QUhBzvp" version="14.9.0" type="github">
  <diagram id="WuUDHX4D9Wj2sy13uxU2" name="Page-1">
    <mxGraphModel dx="2012" dy="735" grid="1" gridSize="10" guides="1" tooltips="1" connect="1" arrows="1" fold="1" page="1" pageScale="1" pageWidth="827" pageHeight="1169" math="0" shadow="0">
      <root>
        <mxCell id="0" />
        <mxCell id="1" parent="0" />
        <mxCell id="KioYTHHMgIBDGEMII4tl-15" value="" style="swimlane;startSize=0;verticalAlign=middle;shadow=1;fillColor=#f5f5f5;gradientDirection=west;swimlaneFillColor=#ffffff;fontColor=#333333;sketch=0;glass=0;strokeColor=#B3B3B3;" vertex="1" parent="1">
          <mxGeometry x="200" y="240" width="600" height="760" as="geometry">
            <mxRectangle x="340" y="320" width="50" height="40" as="alternateBounds" />
          </mxGeometry>
        </mxCell>
        <mxCell id="KioYTHHMgIBDGEMII4tl-18" value="&lt;font style=&quot;font-size: 12px&quot;&gt;&lt;b&gt;Workflow Service Cluster&lt;/b&gt;&lt;/font&gt;" style="text;html=1;align=center;verticalAlign=middle;resizable=0;points=[];autosize=1;strokeColor=none;shadow=0;" vertex="1" parent="KioYTHHMgIBDGEMII4tl-15">
          <mxGeometry x="15" width="160" height="20" as="geometry" />
        </mxCell>
        <mxCell id="KioYTHHMgIBDGEMII4tl-14" value="&lt;font style=&quot;font-size: 12px&quot;&gt;Check Status&lt;/font&gt;" style="rounded=1;whiteSpace=wrap;html=1;fillColor=#dae8fc;strokeColor=#6c8ebf;shadow=1;" vertex="1" parent="KioYTHHMgIBDGEMII4tl-15">
          <mxGeometry x="170" y="50" width="60" height="30" as="geometry" />
        </mxCell>
        <mxCell id="KioYTHHMgIBDGEMII4tl-62" style="edgeStyle=orthogonalEdgeStyle;rounded=0;orthogonalLoop=1;jettySize=auto;html=1;entryX=1;entryY=0.5;entryDx=0;entryDy=0;exitX=1;exitY=0.5;exitDx=0;exitDy=0;" edge="1" parent="KioYTHHMgIBDGEMII4tl-15" source="KioYTHHMgIBDGEMII4tl-78" target="KioYTHHMgIBDGEMII4tl-61">
          <mxGeometry relative="1" as="geometry" />
        </mxCell>
        <mxCell id="KioYTHHMgIBDGEMII4tl-63" style="edgeStyle=orthogonalEdgeStyle;rounded=0;orthogonalLoop=1;jettySize=auto;html=1;entryX=1;entryY=0.5;entryDx=0;entryDy=0;exitX=1;exitY=0.5;exitDx=0;exitDy=0;" edge="1" parent="KioYTHHMgIBDGEMII4tl-15" source="KioYTHHMgIBDGEMII4tl-78" target="KioYTHHMgIBDGEMII4tl-52">
          <mxGeometry relative="1" as="geometry" />
        </mxCell>
        <mxCell id="KioYTHHMgIBDGEMII4tl-71" style="edgeStyle=orthogonalEdgeStyle;rounded=0;orthogonalLoop=1;jettySize=auto;html=1;entryX=0;entryY=0.5;entryDx=0;entryDy=0;" edge="1" parent="KioYTHHMgIBDGEMII4tl-15" source="KioYTHHMgIBDGEMII4tl-32" target="KioYTHHMgIBDGEMII4tl-74">
          <mxGeometry relative="1" as="geometry">
            <Array as="points">
              <mxPoint x="330" y="135" />
              <mxPoint x="330" y="65" />
            </Array>
          </mxGeometry>
        </mxCell>
        <mxCell id="KioYTHHMgIBDGEMII4tl-32" value="Generate Start" style="whiteSpace=wrap;html=1;rounded=1;shadow=1;strokeColor=#6c8ebf;fillColor=#dae8fc;" vertex="1" parent="KioYTHHMgIBDGEMII4tl-15">
          <mxGeometry x="170" y="120" width="60" height="30" as="geometry" />
        </mxCell>
        <mxCell id="KioYTHHMgIBDGEMII4tl-33" value="" style="edgeStyle=orthogonalEdgeStyle;rounded=0;orthogonalLoop=1;jettySize=auto;html=1;" edge="1" parent="KioYTHHMgIBDGEMII4tl-15" source="KioYTHHMgIBDGEMII4tl-14" target="KioYTHHMgIBDGEMII4tl-32">
          <mxGeometry relative="1" as="geometry" />
        </mxCell>
        <mxCell id="KioYTHHMgIBDGEMII4tl-45" value="Persist Proposal Change Request" style="whiteSpace=wrap;html=1;rounded=1;shadow=1;strokeColor=#d6b656;fillColor=#fff2cc;" vertex="1" parent="KioYTHHMgIBDGEMII4tl-15">
          <mxGeometry x="35" y="380" width="120" height="40" as="geometry" />
        </mxCell>
        <mxCell id="KioYTHHMgIBDGEMII4tl-66" style="edgeStyle=orthogonalEdgeStyle;rounded=0;orthogonalLoop=1;jettySize=auto;html=1;entryX=0.5;entryY=0;entryDx=0;entryDy=0;" edge="1" parent="KioYTHHMgIBDGEMII4tl-15" source="KioYTHHMgIBDGEMII4tl-51" target="KioYTHHMgIBDGEMII4tl-45">
          <mxGeometry relative="1" as="geometry" />
        </mxCell>
        <mxCell id="KioYTHHMgIBDGEMII4tl-67" value="drainTo()" style="edgeLabel;html=1;align=center;verticalAlign=middle;resizable=0;points=[];" vertex="1" connectable="0" parent="KioYTHHMgIBDGEMII4tl-66">
          <mxGeometry x="-0.2222" y="-1" relative="1" as="geometry">
            <mxPoint x="-6" y="-4" as="offset" />
          </mxGeometry>
        </mxCell>
        <mxCell id="KioYTHHMgIBDGEMII4tl-51" value="Blocking Queue" style="rounded=0;whiteSpace=wrap;html=1;shadow=1;glass=0;sketch=0;strokeColor=#666666;fillColor=#f5f5f5;verticalAlign=middle;fontColor=#333333;" vertex="1" parent="KioYTHHMgIBDGEMII4tl-15">
          <mxGeometry x="200" y="330" width="120" height="30" as="geometry" />
        </mxCell>
        <mxCell id="KioYTHHMgIBDGEMII4tl-81" style="edgeStyle=orthogonalEdgeStyle;rounded=0;orthogonalLoop=1;jettySize=auto;html=1;" edge="1" parent="KioYTHHMgIBDGEMII4tl-15" source="KioYTHHMgIBDGEMII4tl-52" target="KioYTHHMgIBDGEMII4tl-51">
          <mxGeometry relative="1" as="geometry" />
        </mxCell>
        <mxCell id="KioYTHHMgIBDGEMII4tl-52" value="&lt;font style=&quot;font-size: 10px&quot;&gt;For In Progress Proposal&lt;/font&gt;" style="whiteSpace=wrap;html=1;rounded=1;shadow=1;strokeColor=#82b366;fillColor=#d5e8d4;" vertex="1" parent="KioYTHHMgIBDGEMII4tl-15">
          <mxGeometry x="380" y="240" width="120" height="30" as="geometry" />
        </mxCell>
        <mxCell id="KioYTHHMgIBDGEMII4tl-82" style="edgeStyle=orthogonalEdgeStyle;rounded=0;orthogonalLoop=1;jettySize=auto;html=1;entryX=0.5;entryY=0;entryDx=0;entryDy=0;" edge="1" parent="KioYTHHMgIBDGEMII4tl-15" source="KioYTHHMgIBDGEMII4tl-61" target="KioYTHHMgIBDGEMII4tl-51">
          <mxGeometry relative="1" as="geometry" />
        </mxCell>
        <mxCell id="KioYTHHMgIBDGEMII4tl-61" value="&lt;font style=&quot;font-size: 10px&quot;&gt;For Approved Proposal&lt;/font&gt;" style="whiteSpace=wrap;html=1;rounded=1;shadow=1;strokeColor=#82b366;fillColor=#d5e8d4;" vertex="1" parent="KioYTHHMgIBDGEMII4tl-15">
          <mxGeometry x="380" y="280" width="120" height="30" as="geometry" />
        </mxCell>
        <mxCell id="KioYTHHMgIBDGEMII4tl-68" value="Complete" style="rounded=1;whiteSpace=wrap;html=1;fillColor=#dae8fc;strokeColor=#6c8ebf;shadow=1;" vertex="1" parent="KioYTHHMgIBDGEMII4tl-15">
          <mxGeometry x="170" y="190" width="60" height="30" as="geometry" />
        </mxCell>
        <mxCell id="KioYTHHMgIBDGEMII4tl-79" style="edgeStyle=orthogonalEdgeStyle;rounded=0;orthogonalLoop=1;jettySize=auto;html=1;entryX=0.5;entryY=0;entryDx=0;entryDy=0;" edge="1" parent="KioYTHHMgIBDGEMII4tl-15" source="KioYTHHMgIBDGEMII4tl-74" target="KioYTHHMgIBDGEMII4tl-78">
          <mxGeometry relative="1" as="geometry" />
        </mxCell>
        <mxCell id="KioYTHHMgIBDGEMII4tl-74" value="Init Data" style="whiteSpace=wrap;html=1;rounded=1;shadow=1;strokeColor=#d6b656;fillColor=#fff2cc;" vertex="1" parent="KioYTHHMgIBDGEMII4tl-15">
          <mxGeometry x="410" y="50" width="60" height="30" as="geometry" />
        </mxCell>
        <mxCell id="KioYTHHMgIBDGEMII4tl-80" style="edgeStyle=orthogonalEdgeStyle;rounded=0;orthogonalLoop=1;jettySize=auto;html=1;entryX=1;entryY=0.5;entryDx=0;entryDy=0;exitX=0.5;exitY=1;exitDx=0;exitDy=0;" edge="1" parent="KioYTHHMgIBDGEMII4tl-15" source="KioYTHHMgIBDGEMII4tl-78" target="KioYTHHMgIBDGEMII4tl-68">
          <mxGeometry relative="1" as="geometry" />
        </mxCell>
        <mxCell id="KioYTHHMgIBDGEMII4tl-78" value="Generate Change Request" style="whiteSpace=wrap;html=1;rounded=1;shadow=1;strokeColor=#d6b656;fillColor=#fff2cc;" vertex="1" parent="KioYTHHMgIBDGEMII4tl-15">
          <mxGeometry x="390" y="120" width="100" height="30" as="geometry" />
        </mxCell>
        <mxCell id="KioYTHHMgIBDGEMII4tl-89" style="edgeStyle=orthogonalEdgeStyle;rounded=0;orthogonalLoop=1;jettySize=auto;html=1;entryX=0.5;entryY=0;entryDx=0;entryDy=0;" edge="1" parent="KioYTHHMgIBDGEMII4tl-15" source="KioYTHHMgIBDGEMII4tl-85" target="KioYTHHMgIBDGEMII4tl-88">
          <mxGeometry relative="1" as="geometry" />
        </mxCell>
        <mxCell id="KioYTHHMgIBDGEMII4tl-85" value="Proposal Change request Listener" style="whiteSpace=wrap;html=1;rounded=1;shadow=1;strokeColor=#d6b656;fillColor=#fff2cc;" vertex="1" parent="KioYTHHMgIBDGEMII4tl-15">
          <mxGeometry x="200" y="440" width="120" height="40" as="geometry" />
        </mxCell>
        <mxCell id="KioYTHHMgIBDGEMII4tl-95" style="edgeStyle=orthogonalEdgeStyle;rounded=0;orthogonalLoop=1;jettySize=auto;html=1;entryX=0.5;entryY=0;entryDx=0;entryDy=0;" edge="1" parent="KioYTHHMgIBDGEMII4tl-15" source="KioYTHHMgIBDGEMII4tl-88" target="KioYTHHMgIBDGEMII4tl-92">
          <mxGeometry relative="1" as="geometry" />
        </mxCell>
        <mxCell id="KioYTHHMgIBDGEMII4tl-88" value="Lock Request Row" style="rounded=1;whiteSpace=wrap;html=1;fillColor=#dae8fc;strokeColor=#6c8ebf;shadow=1;" vertex="1" parent="KioYTHHMgIBDGEMII4tl-15">
          <mxGeometry x="160" y="530" width="80" height="30" as="geometry" />
        </mxCell>
        <mxCell id="KioYTHHMgIBDGEMII4tl-97" style="edgeStyle=orthogonalEdgeStyle;rounded=0;orthogonalLoop=1;jettySize=auto;html=1;entryX=0;entryY=0.5;entryDx=0;entryDy=0;" edge="1" parent="KioYTHHMgIBDGEMII4tl-15" source="KioYTHHMgIBDGEMII4tl-92" target="KioYTHHMgIBDGEMII4tl-96">
          <mxGeometry relative="1" as="geometry" />
        </mxCell>
        <mxCell id="KioYTHHMgIBDGEMII4tl-92" value="Begin Updating" style="rounded=1;whiteSpace=wrap;html=1;fillColor=#dae8fc;strokeColor=#6c8ebf;shadow=1;" vertex="1" parent="KioYTHHMgIBDGEMII4tl-15">
          <mxGeometry x="170" y="600" width="60" height="30" as="geometry" />
        </mxCell>
        <mxCell id="KioYTHHMgIBDGEMII4tl-102" style="edgeStyle=orthogonalEdgeStyle;rounded=0;orthogonalLoop=1;jettySize=auto;html=1;entryX=0.5;entryY=1;entryDx=0;entryDy=0;exitX=0.5;exitY=0;exitDx=0;exitDy=0;" edge="1" parent="KioYTHHMgIBDGEMII4tl-15" source="KioYTHHMgIBDGEMII4tl-96" target="KioYTHHMgIBDGEMII4tl-101">
          <mxGeometry relative="1" as="geometry" />
        </mxCell>
        <mxCell id="KioYTHHMgIBDGEMII4tl-108" style="edgeStyle=orthogonalEdgeStyle;rounded=0;orthogonalLoop=1;jettySize=auto;html=1;entryX=1;entryY=0.5;entryDx=0;entryDy=0;exitX=0.5;exitY=1;exitDx=0;exitDy=0;" edge="1" parent="KioYTHHMgIBDGEMII4tl-15" source="KioYTHHMgIBDGEMII4tl-96" target="KioYTHHMgIBDGEMII4tl-98">
          <mxGeometry relative="1" as="geometry" />
        </mxCell>
        <mxCell id="KioYTHHMgIBDGEMII4tl-96" value="Generate Update Information" style="whiteSpace=wrap;html=1;rounded=1;shadow=1;strokeColor=#d6b656;fillColor=#fff2cc;" vertex="1" parent="KioYTHHMgIBDGEMII4tl-15">
          <mxGeometry x="380" y="595" width="120" height="40" as="geometry" />
        </mxCell>
        <mxCell id="KioYTHHMgIBDGEMII4tl-98" value="Finish" style="rounded=1;whiteSpace=wrap;html=1;fillColor=#dae8fc;strokeColor=#6c8ebf;shadow=1;" vertex="1" parent="KioYTHHMgIBDGEMII4tl-15">
          <mxGeometry x="170" y="680" width="60" height="30" as="geometry" />
        </mxCell>
        <mxCell id="KioYTHHMgIBDGEMII4tl-101" value="&lt;font style=&quot;font-size: 10px&quot;&gt;Update Proposal&lt;/font&gt;" style="whiteSpace=wrap;html=1;rounded=1;shadow=1;strokeColor=#82b366;fillColor=#d5e8d4;" vertex="1" parent="KioYTHHMgIBDGEMII4tl-15">
          <mxGeometry x="380" y="530" width="120" height="30" as="geometry" />
        </mxCell>
        <mxCell id="KioYTHHMgIBDGEMII4tl-86" style="edgeStyle=orthogonalEdgeStyle;rounded=0;orthogonalLoop=1;jettySize=auto;html=1;entryX=1;entryY=0.5;entryDx=0;entryDy=0;exitX=0.13;exitY=0.77;exitDx=0;exitDy=0;exitPerimeter=0;" edge="1" parent="1" source="KioYTHHMgIBDGEMII4tl-1" target="KioYTHHMgIBDGEMII4tl-85">
          <mxGeometry relative="1" as="geometry">
            <Array as="points">
              <mxPoint x="820" y="647" />
              <mxPoint x="820" y="700" />
            </Array>
          </mxGeometry>
        </mxCell>
        <mxCell id="KioYTHHMgIBDGEMII4tl-87" value="JMS Listener" style="edgeLabel;html=1;align=center;verticalAlign=middle;resizable=0;points=[];" vertex="1" connectable="0" parent="KioYTHHMgIBDGEMII4tl-86">
          <mxGeometry x="0.4837" y="-1" relative="1" as="geometry">
            <mxPoint y="-9" as="offset" />
          </mxGeometry>
        </mxCell>
        <mxCell id="KioYTHHMgIBDGEMII4tl-1" value="Amazon SQS" style="ellipse;shape=cloud;whiteSpace=wrap;html=1;fillColor=#f5f5f5;strokeColor=#666666;shadow=1;fontColor=#333333;" vertex="1" parent="1">
          <mxGeometry x="880" y="585" width="120" height="80" as="geometry" />
        </mxCell>
        <mxCell id="KioYTHHMgIBDGEMII4tl-19" style="edgeStyle=orthogonalEdgeStyle;rounded=0;orthogonalLoop=1;jettySize=auto;html=1;entryX=0.5;entryY=0;entryDx=0;entryDy=0;exitX=0.5;exitY=1;exitDx=0;exitDy=0;" edge="1" parent="1" source="KioYTHHMgIBDGEMII4tl-5" target="KioYTHHMgIBDGEMII4tl-14">
          <mxGeometry relative="1" as="geometry">
            <mxPoint x="380" y="60" as="targetPoint" />
            <Array as="points">
              <mxPoint x="460" y="210" />
              <mxPoint x="400" y="210" />
            </Array>
          </mxGeometry>
        </mxCell>
        <mxCell id="KioYTHHMgIBDGEMII4tl-20" value="Start Proposal Automatic Update" style="edgeLabel;html=1;align=center;verticalAlign=middle;resizable=0;points=[];" vertex="1" connectable="0" parent="KioYTHHMgIBDGEMII4tl-19">
          <mxGeometry x="0.3342" y="2" relative="1" as="geometry">
            <mxPoint x="28" y="-27" as="offset" />
          </mxGeometry>
        </mxCell>
        <mxCell id="KioYTHHMgIBDGEMII4tl-109" style="edgeStyle=orthogonalEdgeStyle;rounded=0;orthogonalLoop=1;jettySize=auto;html=1;entryX=1;entryY=0.5;entryDx=0;entryDy=0;" edge="1" parent="1" source="KioYTHHMgIBDGEMII4tl-5" target="KioYTHHMgIBDGEMII4tl-110">
          <mxGeometry relative="1" as="geometry">
            <mxPoint x="230" y="140" as="targetPoint" />
          </mxGeometry>
        </mxCell>
        <mxCell id="KioYTHHMgIBDGEMII4tl-5" value="Data Mart Service" style="rounded=1;whiteSpace=wrap;html=1;fillColor=#ffe6cc;strokeColor=#d79b00;shadow=1;" vertex="1" parent="1">
          <mxGeometry x="400" y="120" width="120" height="40" as="geometry" />
        </mxCell>
        <mxCell id="KioYTHHMgIBDGEMII4tl-7" style="edgeStyle=orthogonalEdgeStyle;rounded=0;orthogonalLoop=1;jettySize=auto;html=1;entryX=0.5;entryY=0;entryDx=0;entryDy=0;" edge="1" parent="1" source="KioYTHHMgIBDGEMII4tl-6" target="KioYTHHMgIBDGEMII4tl-5">
          <mxGeometry relative="1" as="geometry" />
        </mxCell>
        <mxCell id="KioYTHHMgIBDGEMII4tl-8" value="Item Import" style="edgeLabel;html=1;align=center;verticalAlign=middle;resizable=0;points=[];" vertex="1" connectable="0" parent="KioYTHHMgIBDGEMII4tl-7">
          <mxGeometry x="-0.306" relative="1" as="geometry">
            <mxPoint x="30" y="9" as="offset" />
          </mxGeometry>
        </mxCell>
        <mxCell id="KioYTHHMgIBDGEMII4tl-6" value="Start" style="ellipse;whiteSpace=wrap;html=1;aspect=fixed;fillColor=#f5f5f5;strokeColor=#666666;fontColor=#333333;shadow=1;" vertex="1" parent="1">
          <mxGeometry x="440" y="20" width="40" height="40" as="geometry" />
        </mxCell>
        <mxCell id="KioYTHHMgIBDGEMII4tl-76" style="edgeStyle=orthogonalEdgeStyle;rounded=0;orthogonalLoop=1;jettySize=auto;html=1;entryX=1;entryY=0.5;entryDx=0;entryDy=0;exitX=0.5;exitY=1;exitDx=0;exitDy=0;" edge="1" parent="1" source="KioYTHHMgIBDGEMII4tl-13" target="KioYTHHMgIBDGEMII4tl-74">
          <mxGeometry relative="1" as="geometry">
            <Array as="points">
              <mxPoint x="940" y="305" />
            </Array>
          </mxGeometry>
        </mxCell>
        <mxCell id="KioYTHHMgIBDGEMII4tl-77" value="&lt;span style=&quot;font-family: &amp;#34;verdana&amp;#34;&quot;&gt;Get Vendor IDs associated &lt;br&gt;with the item change(attribute&amp;amp;Price Group)&lt;/span&gt;" style="edgeLabel;html=1;align=center;verticalAlign=middle;resizable=0;points=[];" vertex="1" connectable="0" parent="KioYTHHMgIBDGEMII4tl-76">
          <mxGeometry x="-0.3106" y="-1" relative="1" as="geometry">
            <mxPoint x="-37" y="16" as="offset" />
          </mxGeometry>
        </mxCell>
        <mxCell id="KioYTHHMgIBDGEMII4tl-13" value="Product Service" style="rounded=1;whiteSpace=wrap;html=1;verticalAlign=middle;fillColor=#f8cecc;strokeColor=#b85450;shadow=1;" vertex="1" parent="1">
          <mxGeometry x="880" y="220" width="120" height="40" as="geometry" />
        </mxCell>
        <mxCell id="KioYTHHMgIBDGEMII4tl-21" value="Proposal Change Request" style="shape=cylinder3;whiteSpace=wrap;html=1;boundedLbl=1;backgroundOutline=1;size=15;shadow=1;fillColor=#e1d5e7;verticalAlign=middle;strokeColor=#9673a6;" vertex="1" parent="1">
          <mxGeometry x="20" y="610" width="120" height="60" as="geometry" />
        </mxCell>
        <mxCell id="KioYTHHMgIBDGEMII4tl-30" style="edgeStyle=orthogonalEdgeStyle;rounded=0;orthogonalLoop=1;jettySize=auto;html=1;entryX=0;entryY=0.5;entryDx=0;entryDy=0;exitX=0.5;exitY=0;exitDx=0;exitDy=0;exitPerimeter=0;" edge="1" parent="1" source="KioYTHHMgIBDGEMII4tl-27" target="KioYTHHMgIBDGEMII4tl-14">
          <mxGeometry relative="1" as="geometry" />
        </mxCell>
        <mxCell id="KioYTHHMgIBDGEMII4tl-31" value="Check Proposal Automatic Update Status" style="edgeLabel;html=1;align=center;verticalAlign=middle;resizable=0;points=[];" vertex="1" connectable="0" parent="KioYTHHMgIBDGEMII4tl-30">
          <mxGeometry x="-0.1814" y="2" relative="1" as="geometry">
            <mxPoint x="25" y="-13" as="offset" />
          </mxGeometry>
        </mxCell>
        <mxCell id="KioYTHHMgIBDGEMII4tl-111" style="edgeStyle=orthogonalEdgeStyle;rounded=0;orthogonalLoop=1;jettySize=auto;html=1;exitX=0;exitY=0.5;exitDx=0;exitDy=0;exitPerimeter=0;entryX=0.5;entryY=1;entryDx=0;entryDy=0;" edge="1" parent="1" source="KioYTHHMgIBDGEMII4tl-21" target="KioYTHHMgIBDGEMII4tl-116">
          <mxGeometry relative="1" as="geometry">
            <mxPoint x="-69.99999999999977" y="650" as="sourcePoint" />
            <mxPoint x="-150" y="480" as="targetPoint" />
            <Array as="points">
              <mxPoint x="-170" y="640" />
            </Array>
          </mxGeometry>
        </mxCell>
        <mxCell id="KioYTHHMgIBDGEMII4tl-114" value="Refresh Proposal Automatic Update Status" style="edgeLabel;html=1;align=center;verticalAlign=middle;resizable=0;points=[];" vertex="1" connectable="0" parent="KioYTHHMgIBDGEMII4tl-111">
          <mxGeometry x="-0.2117" y="-4" relative="1" as="geometry">
            <mxPoint x="6" y="-141" as="offset" />
          </mxGeometry>
        </mxCell>
        <mxCell id="KioYTHHMgIBDGEMII4tl-27" value="Proposal Automatic Update Status" style="shape=cylinder3;whiteSpace=wrap;html=1;boundedLbl=1;backgroundOutline=1;size=15;shadow=1;fillColor=#e1d5e7;verticalAlign=middle;strokeColor=#9673a6;" vertex="1" parent="1">
          <mxGeometry x="20" y="345" width="120" height="60" as="geometry" />
        </mxCell>
        <mxCell id="KioYTHHMgIBDGEMII4tl-34" style="edgeStyle=orthogonalEdgeStyle;rounded=0;orthogonalLoop=1;jettySize=auto;html=1;entryX=1;entryY=0.5;entryDx=0;entryDy=0;entryPerimeter=0;" edge="1" parent="1" source="KioYTHHMgIBDGEMII4tl-32" target="KioYTHHMgIBDGEMII4tl-27">
          <mxGeometry relative="1" as="geometry" />
        </mxCell>
        <mxCell id="KioYTHHMgIBDGEMII4tl-35" value="Step: Generate Change Request" style="edgeLabel;html=1;align=center;verticalAlign=middle;resizable=0;points=[];" vertex="1" connectable="0" parent="KioYTHHMgIBDGEMII4tl-34">
          <mxGeometry x="-0.1515" y="-1" relative="1" as="geometry">
            <mxPoint x="-22" y="-14" as="offset" />
          </mxGeometry>
        </mxCell>
        <mxCell id="KioYTHHMgIBDGEMII4tl-46" style="edgeStyle=orthogonalEdgeStyle;rounded=0;orthogonalLoop=1;jettySize=auto;html=1;entryX=1;entryY=0.5;entryDx=0;entryDy=0;entryPerimeter=0;" edge="1" parent="1" source="KioYTHHMgIBDGEMII4tl-45" target="KioYTHHMgIBDGEMII4tl-21">
          <mxGeometry relative="1" as="geometry" />
        </mxCell>
        <mxCell id="KioYTHHMgIBDGEMII4tl-47" value="Insert to DB" style="edgeLabel;html=1;align=center;verticalAlign=middle;resizable=0;points=[];" vertex="1" connectable="0" parent="KioYTHHMgIBDGEMII4tl-46">
          <mxGeometry x="-0.2654" y="3" relative="1" as="geometry">
            <mxPoint x="-10" y="-13" as="offset" />
          </mxGeometry>
        </mxCell>
        <mxCell id="KioYTHHMgIBDGEMII4tl-72" style="edgeStyle=orthogonalEdgeStyle;rounded=0;orthogonalLoop=1;jettySize=auto;html=1;entryX=0.5;entryY=1;entryDx=0;entryDy=0;entryPerimeter=0;" edge="1" parent="1" source="KioYTHHMgIBDGEMII4tl-68" target="KioYTHHMgIBDGEMII4tl-27">
          <mxGeometry relative="1" as="geometry" />
        </mxCell>
        <mxCell id="KioYTHHMgIBDGEMII4tl-73" value="Step: Generate Request Complete" style="edgeLabel;html=1;align=center;verticalAlign=middle;resizable=0;points=[];" vertex="1" connectable="0" parent="KioYTHHMgIBDGEMII4tl-72">
          <mxGeometry x="-0.147" relative="1" as="geometry">
            <mxPoint x="28" y="-15" as="offset" />
          </mxGeometry>
        </mxCell>
        <mxCell id="KioYTHHMgIBDGEMII4tl-83" style="edgeStyle=orthogonalEdgeStyle;rounded=0;orthogonalLoop=1;jettySize=auto;html=1;entryX=0.07;entryY=0.4;entryDx=0;entryDy=0;entryPerimeter=0;" edge="1" parent="1" source="KioYTHHMgIBDGEMII4tl-45" target="KioYTHHMgIBDGEMII4tl-1">
          <mxGeometry relative="1" as="geometry" />
        </mxCell>
        <mxCell id="KioYTHHMgIBDGEMII4tl-84" value="Send Proposal Change Request SQS Message" style="edgeLabel;html=1;align=center;verticalAlign=middle;resizable=0;points=[];" vertex="1" connectable="0" parent="KioYTHHMgIBDGEMII4tl-83">
          <mxGeometry x="-0.2362" y="-3" relative="1" as="geometry">
            <mxPoint x="83" y="-13" as="offset" />
          </mxGeometry>
        </mxCell>
        <mxCell id="KioYTHHMgIBDGEMII4tl-90" style="edgeStyle=orthogonalEdgeStyle;rounded=0;orthogonalLoop=1;jettySize=auto;html=1;entryX=0.5;entryY=1;entryDx=0;entryDy=0;entryPerimeter=0;" edge="1" parent="1" source="KioYTHHMgIBDGEMII4tl-88" target="KioYTHHMgIBDGEMII4tl-21">
          <mxGeometry relative="1" as="geometry" />
        </mxCell>
        <mxCell id="KioYTHHMgIBDGEMII4tl-91" value="Step: Lock New Proposal Change Request" style="edgeLabel;html=1;align=center;verticalAlign=middle;resizable=0;points=[];" vertex="1" connectable="0" parent="KioYTHHMgIBDGEMII4tl-90">
          <mxGeometry x="0.0042" y="2" relative="1" as="geometry">
            <mxPoint x="38" y="-17" as="offset" />
          </mxGeometry>
        </mxCell>
        <mxCell id="KioYTHHMgIBDGEMII4tl-93" style="edgeStyle=orthogonalEdgeStyle;rounded=0;orthogonalLoop=1;jettySize=auto;html=1;" edge="1" parent="1" source="KioYTHHMgIBDGEMII4tl-92" target="KioYTHHMgIBDGEMII4tl-21">
          <mxGeometry relative="1" as="geometry" />
        </mxCell>
        <mxCell id="KioYTHHMgIBDGEMII4tl-94" value="Step: Begin Update Proposal" style="edgeLabel;html=1;align=center;verticalAlign=middle;resizable=0;points=[];" vertex="1" connectable="0" parent="KioYTHHMgIBDGEMII4tl-93">
          <mxGeometry x="-0.0293" relative="1" as="geometry">
            <mxPoint x="21" y="-15" as="offset" />
          </mxGeometry>
        </mxCell>
        <mxCell id="KioYTHHMgIBDGEMII4tl-99" style="edgeStyle=orthogonalEdgeStyle;rounded=0;orthogonalLoop=1;jettySize=auto;html=1;entryX=0.5;entryY=1;entryDx=0;entryDy=0;entryPerimeter=0;" edge="1" parent="1" source="KioYTHHMgIBDGEMII4tl-98" target="KioYTHHMgIBDGEMII4tl-21">
          <mxGeometry relative="1" as="geometry" />
        </mxCell>
        <mxCell id="KioYTHHMgIBDGEMII4tl-100" value="Step: Update Finished" style="edgeLabel;html=1;align=center;verticalAlign=middle;resizable=0;points=[];" vertex="1" connectable="0" parent="KioYTHHMgIBDGEMII4tl-99">
          <mxGeometry x="-0.1832" y="-2" relative="1" as="geometry">
            <mxPoint y="-13" as="offset" />
          </mxGeometry>
        </mxCell>
        <mxCell id="KioYTHHMgIBDGEMII4tl-105" value="Contract Service" style="rounded=1;whiteSpace=wrap;html=1;verticalAlign=middle;fillColor=#f8cecc;strokeColor=#b85450;shadow=1;" vertex="1" parent="1">
          <mxGeometry x="880" y="835" width="120" height="40" as="geometry" />
        </mxCell>
        <mxCell id="KioYTHHMgIBDGEMII4tl-106" style="edgeStyle=orthogonalEdgeStyle;rounded=0;orthogonalLoop=1;jettySize=auto;html=1;entryX=0;entryY=0.5;entryDx=0;entryDy=0;" edge="1" parent="1" source="KioYTHHMgIBDGEMII4tl-96" target="KioYTHHMgIBDGEMII4tl-105">
          <mxGeometry relative="1" as="geometry" />
        </mxCell>
        <mxCell id="KioYTHHMgIBDGEMII4tl-107" value="Create New Proposal" style="edgeLabel;html=1;align=center;verticalAlign=middle;resizable=0;points=[];" vertex="1" connectable="0" parent="KioYTHHMgIBDGEMII4tl-106">
          <mxGeometry x="0.3241" relative="1" as="geometry">
            <mxPoint x="-19" y="-15" as="offset" />
          </mxGeometry>
        </mxCell>
        <mxCell id="KioYTHHMgIBDGEMII4tl-113" style="edgeStyle=orthogonalEdgeStyle;rounded=0;orthogonalLoop=1;jettySize=auto;html=1;entryX=0.5;entryY=1;entryDx=0;entryDy=0;" edge="1" parent="1" source="KioYTHHMgIBDGEMII4tl-110" target="KioYTHHMgIBDGEMII4tl-112">
          <mxGeometry relative="1" as="geometry" />
        </mxCell>
        <mxCell id="KioYTHHMgIBDGEMII4tl-118" style="edgeStyle=orthogonalEdgeStyle;rounded=0;orthogonalLoop=1;jettySize=auto;html=1;entryX=0.5;entryY=0;entryDx=0;entryDy=0;" edge="1" parent="1" source="KioYTHHMgIBDGEMII4tl-110" target="KioYTHHMgIBDGEMII4tl-116">
          <mxGeometry relative="1" as="geometry" />
        </mxCell>
        <mxCell id="KioYTHHMgIBDGEMII4tl-119" value="Polling" style="edgeLabel;html=1;align=center;verticalAlign=middle;resizable=0;points=[];" vertex="1" connectable="0" parent="KioYTHHMgIBDGEMII4tl-118">
          <mxGeometry x="-0.1823" relative="1" as="geometry">
            <mxPoint y="-10" as="offset" />
          </mxGeometry>
        </mxCell>
        <mxCell id="KioYTHHMgIBDGEMII4tl-110" value="Polling Status" style="rounded=1;whiteSpace=wrap;html=1;fillColor=#dae8fc;strokeColor=#6c8ebf;shadow=1;" vertex="1" parent="1">
          <mxGeometry x="160" y="125" width="80" height="30" as="geometry" />
        </mxCell>
        <mxCell id="KioYTHHMgIBDGEMII4tl-112" value="End" style="ellipse;whiteSpace=wrap;html=1;aspect=fixed;fillColor=#f5f5f5;strokeColor=#666666;fontColor=#333333;shadow=1;" vertex="1" parent="1">
          <mxGeometry x="180" y="20" width="40" height="40" as="geometry" />
        </mxCell>
        <mxCell id="KioYTHHMgIBDGEMII4tl-120" style="edgeStyle=orthogonalEdgeStyle;rounded=0;orthogonalLoop=1;jettySize=auto;html=1;entryX=0;entryY=0.5;entryDx=0;entryDy=0;entryPerimeter=0;" edge="1" parent="1" source="KioYTHHMgIBDGEMII4tl-116" target="KioYTHHMgIBDGEMII4tl-27">
          <mxGeometry relative="1" as="geometry" />
        </mxCell>
        <mxCell id="KioYTHHMgIBDGEMII4tl-122" value="Step: Update Complete" style="edgeLabel;html=1;align=center;verticalAlign=middle;resizable=0;points=[];" vertex="1" connectable="0" parent="KioYTHHMgIBDGEMII4tl-120">
          <mxGeometry x="-0.3" y="1" relative="1" as="geometry">
            <mxPoint x="28" y="-14" as="offset" />
          </mxGeometry>
        </mxCell>
        <mxCell id="KioYTHHMgIBDGEMII4tl-116" value="Polling Status" style="rounded=1;whiteSpace=wrap;html=1;fillColor=#dae8fc;strokeColor=#6c8ebf;shadow=1;" vertex="1" parent="1">
          <mxGeometry x="-210" y="360" width="80" height="30" as="geometry" />
        </mxCell>
      </root>
    </mxGraphModel>
  </diagram>
</mxfile>
